<svg width="27" height="27" viewBox="0 0 27 27" fill="none" xmlns="http://www.w3.org/2000/svg">
<g clip-path="url(#clip0_97_1092)">
<path d="M24.2039 17.4878C22.6427 17.4878 21.1098 17.2437 19.6571 16.7636C18.9453 16.5208 18.0703 16.7435 17.6358 17.1897L14.7686 19.3542C11.4435 17.5792 9.39523 15.5316 7.6445 12.2314L9.74526 9.43893C10.2911 8.89386 10.4868 8.09765 10.2523 7.35058C9.77016 5.89031 9.52526 4.35812 9.52526 2.79624C9.52532 1.66793 8.60739 0.75 7.47915 0.75H2.79618C1.66793 0.75 0.75 1.66793 0.75 2.79618C0.75 15.7288 11.2713 26.25 24.2039 26.25C25.3321 26.25 26.2501 25.3321 26.2501 24.2038V19.5339C26.25 18.4058 25.3321 17.4878 24.2039 17.4878Z" fill="white"/>
</g>
<defs>
<clipPath id="clip0_97_1092">
<rect width="25.5" height="25.5" fill="white" transform="translate(0.75 0.75)"/>
</clipPath>
</defs>
</svg>
