<svg width="44" height="44" viewBox="0 0 44 44" fill="none" xmlns="http://www.w3.org/2000/svg">
<path d="M21.5886 0C9.6847 0 0 9.6847 0 21.5886C0 33.4916 9.6847 43.1772 21.5886 43.1772C33.4916 43.1772 43.1772 33.4916 43.1772 21.5886C43.1772 9.6847 33.4934 0 21.5886 0ZM26.9575 22.3486H23.4452V34.8673H18.2407C18.2407 34.8673 18.2407 28.0271 18.2407 22.3486H15.7667V17.9241H18.2407V15.0623C18.2407 13.0126 19.2146 9.80992 23.493 9.80992L27.3497 9.8247V14.1196C27.3497 14.1196 25.0061 14.1196 24.5504 14.1196C24.0948 14.1196 23.4469 14.3475 23.4469 15.3249V17.925H27.4123L26.9575 22.3486Z" fill="white"/>
</svg>
