<svg width="44" height="44" viewBox="0 0 44 44" fill="none" xmlns="http://www.w3.org/2000/svg">
  <path fill-rule="evenodd" clip-rule="evenodd" d="M21.5886 0C17.3188 0 13.1449 1.26615 9.59463 3.63833C6.0444 6.01052 3.27733 9.3822 1.64334 13.327C0.00935395 17.2718 -0.418172 21.6125 0.414829 25.8003C1.24783 29.9881 3.30394 33.8348 6.32316 36.854C9.34238 39.8733 13.1891 41.9294 17.3769 42.7624C21.5647 43.5954 25.9054 43.1678 29.8502 41.5339C33.795 39.8999 37.1667 37.1328 39.5389 33.5826C41.9111 30.0324 43.1772 25.8584 43.1772 21.5886C43.1772 15.8629 40.9027 10.3718 36.854 6.32315C32.8054 2.27451 27.3143 0 21.5886 0ZM16.7886 12.5886H26.3886A4.2 4.2 0 0 1 30.5886 16.7886V26.3886A4.2 4.2 0 0 1 26.3886 30.5886H16.7886A4.2 4.2 0 0 1 12.5886 26.3886V16.7886A4.2 4.2 0 0 1 16.7886 12.5886ZM16.7886 14.7886H26.3886A2 2 0 0 1 28.3886 16.7886V26.3886A2 2 0 0 1 26.3886 28.3886H16.7886A2 2 0 0 1 14.7886 26.3886V16.7886A2 2 0 0 1 16.7886 14.7886ZM26.4886 21.5886A4.9 4.9 0 1 0 16.6886 21.5886A4.9 4.9 0 1 0 26.4886 21.5886ZM23.9886 21.5886A2.4 2.4 0 1 0 19.1886 21.5886A2.4 2.4 0 1 0 23.9886 21.5886ZM28.0886 16.3886A1.1 1.1 0 1 0 25.8886 16.3886A1.1 1.1 0 1 0 28.0886 16.3886Z" fill="white"/>
</svg>
