<svg width="122" height="20" viewBox="0 0 122 20" fill="none" xmlns="http://www.w3.org/2000/svg">
<path d="M35.5016 0L37.7003 6.76718H44.8158L39.0593 10.9495L41.2581 17.7167L35.5016 13.5344L29.7451 17.7167L31.9438 10.9495L26.1873 6.76718H33.3028L35.5016 0Z" fill="#B0653C"/>
<path d="M9.79355 0L11.9923 6.76718H19.1078L13.3513 10.9495L15.5501 17.7167L9.79355 13.5344L4.03705 17.7167L6.23583 10.9495L0.47933 6.76718H7.59476L9.79355 0Z" fill="#B0653C"/>
<path d="M61.2096 0L63.4084 6.76718H70.5238L64.7673 10.9495L66.9661 17.7167L61.2096 13.5344L55.4531 17.7167L57.6518 10.9495L51.8953 6.76718H59.0108L61.2096 0Z" fill="#B0653C"/>
<path d="M86.9177 0L89.1165 6.76718H96.2319L90.4754 10.9495L92.6742 17.7167L86.9177 13.5344L81.1612 17.7167L83.36 10.9495L77.6035 6.76718H84.7189L86.9177 0Z" fill="#B0653C"/>
<path d="M111.626 0L113.824 6.76718H120.94L115.183 10.9495L117.382 17.7167L111.626 13.5344L105.869 17.7167L108.068 10.9495L102.311 6.76718H109.427L111.626 0Z" fill="#B0653C"/>
</svg>
